<svg viewBox="0 0 125 94" fill="none" xmlns="http://www.w3.org/2000/svg">
<g id="Bull">
<g id="Base">
<path id="Vector" d="M88.4276 91.9123L82.719 80.9317C82.3493 80.2206 81.6144 79.7743 80.8129 79.7743H76.5161C77.3177 79.7743 78.0524 80.2206 78.4222 80.9317L84.1307 91.9123C84.5768 92.7704 83.9541 93.7958 82.987 93.7958H87.2839C88.2509 93.7958 88.8736 92.7704 88.4276 91.9123Z" fill="#685E68"/>
<path id="Vector_2" d="M30.1395 57.4722H72.352V82.1746H30.1395V57.4722Z" fill="#00F2A6"/>
<path id="Vector_3" d="M68.0552 57.4722H72.352V82.1746H68.0552V57.4722Z" fill="#0ED290"/>
<path id="Vector_4" d="M14.064 91.9123L19.7725 80.9317C20.1423 80.2206 20.8772 79.7743 21.6786 79.7743H80.8129C81.6146 79.7743 82.3495 80.2206 82.719 80.9317L88.4275 91.9123C88.8736 92.7704 88.2509 93.7958 87.2839 93.7958H15.2077C14.2406 93.7958 13.6179 92.7704 14.064 91.9123Z" fill="#7A6D79"/>
</g>
<g id="Body">
<path id="Vector_5" d="M114.756 38.9548L107.564 11.7768C105.433 3.72317 96.7788 -0.694863 89.0056 2.30235C89.0056 2.30235 71.1988 9.15474 70.7097 9.31803C69.0301 9.87881 68.1361 13.3453 66.3876 13.6366L25.613 19.2978C24.8723 19.4212 23.3645 17.692 22.6707 17.923C16.9743 19.8198 13 25.1806 13 31.3471V63.3501C13 65.1938 14.4946 66.6885 16.3384 66.6885H85.4562C87.3 66.6885 88.7948 65.1936 88.7948 63.3499V40.912C90.2899 41.5669 91.9215 41.9612 93.6322 42.0321C94.7133 42.077 95.7673 41.9942 96.7813 41.7988C98.6951 41.4297 100.641 42.2768 101.742 43.8849L102.208 44.5653C103.702 46.7461 106.479 47.6437 108.967 46.7499L111.122 45.9753C113.984 44.9466 115.568 41.8853 114.756 38.9548Z" fill="#C59191"/>
<path id="Vector_6" d="M88.7948 40.9156V63.3499C88.7948 65.1938 87.3001 66.6885 85.4562 66.6885H81.1599C83.0033 66.6885 84.4985 65.1947 84.4985 63.3491V39.0089C84.4985 38.6131 84.9644 38.4018 85.2616 38.6633C86.3096 39.5853 87.5006 40.3492 88.7948 40.9156Z" fill="#B98080"/>
<path id="Vector_7" d="M114.756 38.9549L107.564 11.7768C105.693 4.70899 98.7998 0.442774 91.8863 1.5295C97.1708 2.35555 101.788 6.18987 103.267 11.7768L110.459 38.9549C111.271 41.8853 109.687 44.9468 106.825 45.9751L104.862 46.6806C106.144 47.1882 107.598 47.2414 108.966 46.7497L111.121 45.9751C113.984 44.9466 115.568 41.8853 114.756 38.9549Z" fill="#B98080"/>
<path id="Vector_8" d="M106.757 8.60044C104.671 9.31867 102.545 9.65214 100.457 9.63983C98.5674 9.62857 96.8659 10.7762 96.2303 12.5561C96.2065 12.6229 96.1825 12.6896 96.1585 12.7568C95.1592 15.5531 97.1266 18.5656 100.093 18.6953C102.407 18.7964 104.778 18.4736 107.101 17.674C114.117 15.2589 118.811 9.14892 119.756 2.26859C120.017 0.369153 117.534 -0.58807 116.487 1.01815C114.258 4.43788 110.916 7.16857 106.757 8.60044Z" fill="#D8ECFE"/>
<path id="Vector_9" d="M118.653 0.345795C117.1 6.88641 112.121 12.4003 105.181 14.3069C102.812 14.9575 100.426 15.1296 98.1228 14.8818C97.2716 14.7903 96.5191 14.4639 95.9064 13.9815C95.7548 16.3685 97.5585 18.5841 100.093 18.6949C102.407 18.796 104.778 18.4732 107.101 17.6736C114.117 15.2585 118.81 9.1485 119.756 2.26817C119.884 1.3368 119.352 0.632962 118.653 0.345795Z" fill="#B3DAFE"/>
<path id="Vector_10" d="M34.8297 43.4768H58.552C65.2665 43.4768 70.71 38.0335 70.71 31.319V9.31805C69.0301 9.87904 67.3084 10.3082 65.5599 10.5996L63.7214 10.9059L46.1491 23.6971L29.6605 16.5827L24.8245 17.3888C24.0836 17.5122 23.3658 17.6951 22.6719 17.9262V31.319C22.6719 38.0335 28.1152 43.4768 34.8297 43.4768Z" fill="#FDB441"/>
<path id="Vector_11" d="M63.7214 31.319V10.9059L29.6603 16.5827V31.3188C29.6603 34.1692 31.9793 36.4882 34.8297 36.4882H58.552C61.4021 36.4884 63.7214 34.1694 63.7214 31.319Z" fill="#6C7FD8"/>
<path id="Vector_12" d="M101.952 27.9141C101.062 27.9141 100.341 27.1927 100.341 26.3028V25.2144C100.341 24.3246 101.062 23.6032 101.952 23.6032C102.842 23.6032 103.563 24.3246 103.563 25.2144V26.3028C103.564 27.1927 102.842 27.9141 101.952 27.9141Z" fill="#7A6D79"/>
</g>
</g>
</svg>
